# xmcd
# Copyright (C) 1995-1998 Ti Kan
#
# Track frame offsets:
#       150
#       22115
#       34099
#       51596
#       70189
#       77379
#       92188
#       105823
#       116605
#       133195
#       146261
#       164326
#
# Disc length: 2382 seconds
#
# Revision: 12
# Processed by: cddbd v1.5PL3 Copyright (c) Steve Scherf et al.
# Submitted via: CD-Transfer v1.0
#
DISCID=9c094c0c
DTITLE=Johnston Tom - Dirty Dancing
DYEAR=1900
DGENRE=
TTITLE0=The Time Of My Life
TTITLE1=Be My Baby
TTITLE2=She's Like The Wind
TTITLE3=Hungry Eyes
TTITLE4=Stay
TTITLE5=Yes
TTITLE6=You Don't
TTITLE7=Hey Baby
TTITLE8=Overload
TTITLE9=Love Is Strange
TTITLE10=Where Are You Tonight
TTITLE11=In The Still Of The Night
EXTD=
EXTT0=
EXTT1=
EXTT2=
EXTT3=
EXTT4=
EXTT5=
EXTT6=
EXTT7=
EXTT8=
EXTT9=
EXTT10=
EXTT11=
PLAYORDER=
